<svg xmlns="http://www.w3.org/2000/svg" viewBox="0 0 120 72" role="img" aria-label="dris">
<defs>
<filter id="glow" x="-20%" y="-20%" width="140%" height="140%">
<feGaussianBlur stdDeviation="1.3" result="b"/><feMerge><feMergeNode in="b"/><feMergeNode in="SourceGraphic"/></feMerge>
</filter>
<linearGradient id="field" x1="0" y1="0" x2="0" y2="1">
<stop offset="0" stop-color="#54ffb0" stop-opacity="0.16"/><stop offset="1" stop-color="#54ffb0" stop-opacity="0.02"/>
</linearGradient>
</defs>
<rect x="2" y="2" width="116" height="68" rx="8" fill="url(#field)"/>
<rect x="3" y="3" width="114" height="66" rx="8" fill="none" stroke="#ff9a3c" stroke-width="1.4" stroke-dasharray="6 5" opacity="0.85"/>
<g opacity="1">
<g fill="none" stroke="#54ffb0" stroke-width="1.7" stroke-linejoin="round" stroke-linecap="round" filter="url(#glow)">
<path d="M24 72 C24 52 40 47 60 47 C80 47 96 52 96 72 Z"/><circle cx="60" cy="27" r="12"/><path d="M42 30 Q60 4 78 30 Q60 20 42 30 Z"/>
</g>
<g fill="none" stroke="#54ffb0" stroke-linecap="round"></g>
<g fill="#54ffb0" stroke="#54ffb0"><path d="M54 52 Q68 52 66 57 Q54 57 56 62 Q70 62 68 66" fill="none" stroke-width="1.3"/></g>
</g>
<g stroke="none"><rect x="51.5" y="59.0" width="3" height="11.0" rx="1" fill="#54ffb0" opacity="0.85"/><rect x="58.5" y="65.4" width="3" height="4.6" rx="1" fill="#54ffb0" opacity="0.85"/><rect x="65.5" y="62.2" width="3" height="7.8" rx="1" fill="#54ffb0" opacity="0.85"/></g>
<g opacity="0.10" stroke="#000"><path d="M0 8 H120 M0 16 H120 M0 24 H120 M0 32 H120 M0 40 H120 M0 48 H120 M0 56 H120 M0 64 H120"/></g>
</svg>