<svg xmlns="http://www.w3.org/2000/svg" viewBox="0 0 120 72" role="img" aria-label="outloom">
<defs>
<filter id="glow" x="-20%" y="-20%" width="140%" height="140%">
<feGaussianBlur stdDeviation="1.3" result="b"/><feMerge><feMergeNode in="b"/><feMergeNode in="SourceGraphic"/></feMerge>
</filter>
<linearGradient id="field" x1="0" y1="0" x2="0" y2="1">
<stop offset="0" stop-color="#ff5d7a" stop-opacity="0.16"/><stop offset="1" stop-color="#ff5d7a" stop-opacity="0.02"/>
</linearGradient>
</defs>
<rect x="2" y="2" width="116" height="68" rx="8" fill="url(#field)"/>
<g opacity="1">
<g fill="none" stroke="#ff5d7a" stroke-width="1.7" stroke-linejoin="round" stroke-linecap="round" filter="url(#glow)">
<path d="M30 72 V22 H90 V72" fill="none"/><path d="M30 30 H90 M30 44 H90 M30 58 H90" fill="none"/><path d="M60 30 L72 44 L60 58 L48 44 Z"/>
</g>
<g fill="none" stroke="#ff5d7a" stroke-linecap="round"></g>
<g fill="#ff5d7a" stroke="#ff5d7a"><path d="M52 52 H68 M52 62 H68 M56 48 V66 M64 48 V66" stroke-width="1.2" fill="none" opacity="0.8"/></g>
</g>
<g stroke="none"><rect x="51.5" y="59.0" width="3" height="11.0" rx="1" fill="#ff5d7a" opacity="0.85"/><rect x="58.5" y="63.8" width="3" height="6.2" rx="1" fill="#ff5d7a" opacity="0.85"/><rect x="65.5" y="59.0" width="3" height="11.0" rx="1" fill="#ff5d7a" opacity="0.85"/></g>
<g opacity="0.10" stroke="#000"><path d="M0 8 H120 M0 16 H120 M0 24 H120 M0 32 H120 M0 40 H120 M0 48 H120 M0 56 H120 M0 64 H120"/></g>
</svg>